<svg width="420" height="420" viewBox="0 0 420 420" fill="none" xmlns="http://www.w3.org/2000/svg">
<rect width="420" height="420" rx="24" fill="#1F1F1F"/>
<path d="M380 34L326.538 145.923V115.923L213.461 215.923V180.923L380 34Z" fill="white" stroke="white"/>
<path d="M213.461 180.923L380 34L326.538 39.7692V53.6154L213.461 152.077V170.538V180.923Z" fill="white" stroke="white"/>
<path d="M212.692 107.077L213.462 152.077V170.538L195.385 157.077L212.692 107.077Z" fill="white" stroke="white"/>
<path d="M195.385 157.077L40 297.462L213.462 170.539L195.385 157.077Z" fill="white" stroke="white"/>
<path d="M40 297.462L212.692 107.077L195.385 157.077L40 297.462Z" fill="white" stroke="white"/>
<path d="M215 238.231V385.538L253.846 350.923V202.846L215 238.231Z" fill="white"/>
<path d="M313.077 294.385V154.769L274.615 189.769V327.846L313.077 294.385Z" fill="white"/>
<path d="M101.154 273.615V294.769L139.615 328.615V245.538L101.154 273.615Z" fill="white"/>
<path d="M159.231 234.769V353.615L197.692 385.538V205.923L159.231 234.769Z" fill="white"/>
</svg>
