<svg width="442" height="457" viewBox="0 0 442 457" fill="none" xmlns="http://www.w3.org/2000/svg">
<path d="M442 0L372.5 145.5V106.5L225.5 236.5V191L442 0Z" fill="white"/>
<path d="M225.5 191L442 0L372.5 7.5V25.5L225.5 153.5V177.5V191Z" fill="white"/>
<path d="M224.5 95L225.5 153.5V177.5L202 160L224.5 95Z" fill="white"/>
<path d="M202 160L0 342.5L225.5 177.5L202 160Z" fill="white"/>
<path d="M0 342.5L224.5 95L202 160L0 342.5Z" fill="white"/>
<path d="M227.5 265.5V457L278 412V219.5L227.5 265.5Z" fill="white"/>
<path d="M355 338.5V157L305 202.5V382L355 338.5Z" fill="white"/>
<path d="M79.5 311.5V339L129.5 383V275L79.5 311.5Z" fill="white"/>
<path d="M155 261V415.5L205 457V223.5L155 261Z" fill="white"/>
</svg>
