<svg width="445" height="458" viewBox="0 0 445 458" fill="none" xmlns="http://www.w3.org/2000/svg">
<path d="M443 1L373.5 146.5V107.5L226.5 237.5V192L443 1Z" fill="#1F1F1F" stroke="#1F1F1F"/>
<path d="M226.5 192L443 1L373.5 8.5V26.5L226.5 154.5V178.5V192Z" fill="#1F1F1F" stroke="#1F1F1F"/>
<path d="M225.5 96L226.5 154.5V178.5L203 161L225.5 96Z" fill="#1F1F1F" stroke="#1F1F1F"/>
<path d="M203 161L1 343.5L226.5 178.5L203 161Z" fill="#1F1F1F" stroke="#1F1F1F"/>
<path d="M1 343.5L225.5 96L203 161L1 343.5Z" fill="#1F1F1F" stroke="#1F1F1F"/>
<path d="M228.5 266.5V458L279 413V220.5L228.5 266.5Z" fill="#1F1F1F"/>
<path d="M356 339.5V158L306 203.5V383L356 339.5Z" fill="#1F1F1F"/>
<path d="M80.5 312.5V340L130.5 384V276L80.5 312.5Z" fill="#1F1F1F"/>
<path d="M156 262V416.5L206 458V224.5L156 262Z" fill="#1F1F1F"/>
</svg>
